# xmcd CD database file
#
# Track frame offsets:
#	150
#	10557
#	32482
#	51332
#	76287
#	168175
#	185740
#
# Disc length: 2759 seconds
#
# Revision: 0
# Processed by: cddbd v1.5.1PL0 Copyright (c) Steve Scherf et al.
# Submitted via: CDex 1.51
#
DISCID=490ac507
DTITLE=New Trolls - Concerto Grosso Per 1
DYEAR=1971
DGENRE=Progressive Rock
TTITLE0=Allegro
TTITLE1=Adagio(Shadows)
TTITLE2=Cadanza-Andante Con Moto
TTITLE3=Shadows(Per Jimy Hendrix)
TTITLE4=Nella Sala Vuota
TTITLE5=La Prima Goccia Bagna Il Viso Part 1
TTITLE6=La Prima Goccia Bagna Il Viso Part 2
EXTD=YEAR: 1971
EXTT0=
EXTT1=
EXTT2=
EXTT3=
EXTT4=
EXTT5=
EXTT6=
PLAYORDER=
